<?xml version="1.0" encoding="utf-8" standalone="no"?>
<!DOCTYPE svg PUBLIC "-//W3C//DTD SVG 1.1//EN"
  "http://www.w3.org/Graphics/SVG/1.1/DTD/svg11.dtd">
<svg xmlns:xlink="http://www.w3.org/1999/xlink" width="864pt" height="576pt" viewBox="0 0 864 576" xmlns="http://www.w3.org/2000/svg" version="1.1">
 <metadata>
  <rdf:RDF xmlns:dc="http://purl.org/dc/elements/1.1/" xmlns:cc="http://creativecommons.org/ns#" xmlns:rdf="http://www.w3.org/1999/02/22-rdf-syntax-ns#">
   <cc:Work>
    <dc:type rdf:resource="http://purl.org/dc/dcmitype/StillImage"/>
    <dc:date>2026-04-01T18:59:53.081216</dc:date>
    <dc:format>image/svg+xml</dc:format>
    <dc:creator>
     <cc:Agent>
      <dc:title>Matplotlib v3.10.8, https://matplotlib.org/</dc:title>
     </cc:Agent>
    </dc:creator>
   </cc:Work>
  </rdf:RDF>
 </metadata>
 <defs>
  <style type="text/css">*{stroke-linejoin: round; stroke-linecap: butt}</style>
 </defs>
 <g id="figure_1">
  <g id="patch_1">
   <path d="M 0 576 
L 864 576 
L 864 0 
L 0 0 
z
" style="fill: #ffffff"/>
  </g>
  <g id="patch_2">
   <path d="M 221.04 512.64 
L 664.56 512.64 
L 664.56 69.12 
L 221.04 69.12 
z
" style="fill: #ffffff"/>
  </g>
  <g id="pane3d_1">
   <g id="patch_3">
    <path d="M 448.793514 313.714636 
L 647.570534 383.946471 
L 653.73481 182.754551 
L 448.793514 125.466584 
" style="fill: #f2f2f2; opacity: 0.5; stroke: #f2f2f2; stroke-linejoin: miter"/>
   </g>
  </g>
  <g id="pane3d_2">
   <g id="patch_4">
    <path d="M 448.793514 313.714636 
L 250.016493 383.946471 
L 243.852217 182.754551 
L 448.793514 125.466584 
" style="fill: #e6e6e6; opacity: 0.5; stroke: #e6e6e6; stroke-linejoin: miter"/>
   </g>
  </g>
  <g id="pane3d_3">
   <g id="patch_5">
    <path d="M 448.793514 313.714636 
L 250.016493 383.946471 
L 448.793514 466.046994 
L 647.570534 383.946471 
" style="fill: #ececec; opacity: 0.5; stroke: #ececec; stroke-linejoin: miter"/>
   </g>
  </g>
  <g id="grid3d_1">
   <g id="Line3DCollection_1">
    <path d="M 630.512146 390.992067 
L 431.639932 319.775334 
L 431.14413 130.400178 
" style="fill: none; stroke: #b0b0b0; stroke-width: 0.8"/>
    <path d="M 608.114647 400.242867 
L 409.144715 327.723337 
L 407.988387 136.872985 
" style="fill: none; stroke: #b0b0b0; stroke-width: 0.8"/>
    <path d="M 585.289695 409.670217 
L 386.251973 335.811794 
L 384.411404 143.463543 
" style="fill: none; stroke: #b0b0b0; stroke-width: 0.8"/>
    <path d="M 562.024935 419.27922 
L 362.951074 344.04446 
L 360.401581 150.175094 
" style="fill: none; stroke: #b0b0b0; stroke-width: 0.8"/>
    <path d="M 538.307532 429.075177 
L 339.231004 352.425228 
L 335.946887 157.011001 
" style="fill: none; stroke: #b0b0b0; stroke-width: 0.8"/>
    <path d="M 514.124146 439.063598 
L 315.08035 360.95813 
L 311.034842 163.974753 
" style="fill: none; stroke: #b0b0b0; stroke-width: 0.8"/>
    <path d="M 489.460907 449.250212 
L 290.48728 369.647346 
L 285.652496 171.069971 
" style="fill: none; stroke: #b0b0b0; stroke-width: 0.8"/>
    <path d="M 464.303392 459.640976 
L 265.439525 378.497211 
L 259.786404 178.300411 
" style="fill: none; stroke: #b0b0b0; stroke-width: 0.8"/>
   </g>
  </g>
  <g id="grid3d_2">
   <g id="Line3DCollection_2">
    <path d="M 455.225825 127.264631 
L 455.045897 315.923726 
L 256.232109 386.513696 
" style="fill: none; stroke: #b0b0b0; stroke-width: 0.8"/>
    <path d="M 478.985466 133.906247 
L 478.133296 324.080959 
L 279.204323 396.001869 
" style="fill: none; stroke: #b0b0b0; stroke-width: 0.8"/>
    <path d="M 503.190674 140.672415 
L 501.641325 332.386808 
L 302.628406 405.676677 
" style="fill: none; stroke: #b0b0b0; stroke-width: 0.8"/>
    <path d="M 527.854102 147.56667 
L 525.581584 340.845373 
L 326.517823 415.543681 
" style="fill: none; stroke: #b0b0b0; stroke-width: 0.8"/>
    <path d="M 552.988887 154.592686 
L 549.966104 349.460904 
L 350.88658 425.608666 
" style="fill: none; stroke: #b0b0b0; stroke-width: 0.8"/>
    <path d="M 578.60867 161.754275 
L 574.807368 358.237812 
L 375.749249 435.87765 
" style="fill: none; stroke: #b0b0b0; stroke-width: 0.8"/>
    <path d="M 604.727626 169.055399 
L 600.11833 367.180674 
L 401.121001 446.3569 
" style="fill: none; stroke: #b0b0b0; stroke-width: 0.8"/>
    <path d="M 631.360488 176.500178 
L 625.912439 376.29424 
L 427.017633 457.05294 
" style="fill: none; stroke: #b0b0b0; stroke-width: 0.8"/>
   </g>
  </g>
  <g id="grid3d_3">
   <g id="Line3DCollection_3">
    <path d="M 249.601084 370.388172 
L 448.793514 301.002107 
L 647.985943 370.388172 
" style="fill: none; stroke: #b0b0b0; stroke-width: 0.8"/>
    <path d="M 248.391681 330.915243 
L 448.793514 264.013363 
L 649.195346 330.915243 
" style="fill: none; stroke: #b0b0b0; stroke-width: 0.8"/>
    <path d="M 247.167503 290.960064 
L 448.793514 226.605817 
L 650.419524 290.960064 
" style="fill: none; stroke: #b0b0b0; stroke-width: 0.8"/>
    <path d="M 245.928276 250.513743 
L 448.793514 188.772315 
L 651.658751 250.513743 
" style="fill: none; stroke: #b0b0b0; stroke-width: 0.8"/>
    <path d="M 244.673723 209.567168 
L 448.793514 150.50554 
L 652.913304 209.567168 
" style="fill: none; stroke: #b0b0b0; stroke-width: 0.8"/>
   </g>
  </g>
  <g id="axis3d_1">
   <g id="line2d_1">
    <path d="M 647.570534 383.946471 
L 448.793514 466.046994 
" style="fill: none; stroke: #000000; stroke-width: 0.8; stroke-linecap: square"/>
   </g>
   <g id="xtick_1">
    <g id="line2d_2">
     <path d="M 628.797388 390.378007 
L 633.94813 392.222503 
" style="fill: none; stroke: #000000; stroke-width: 0.8; stroke-linecap: square"/>
    </g>
    <g id="text_1">
     <!-- 106.0 -->
     <g transform="translate(626.626561 412.22146) scale(0.1 -0.1)">
      <defs>
       <path id="DejaVuSans-31" d="M 794 531 
L 1825 531 
L 1825 4091 
L 703 3866 
L 703 4441 
L 1819 4666 
L 2450 4666 
L 2450 531 
L 3481 531 
L 3481 0 
L 794 0 
L 794 531 
z
" transform="scale(0.015625)"/>
       <path id="DejaVuSans-30" d="M 2034 4250 
Q 1547 4250 1301 3770 
Q 1056 3291 1056 2328 
Q 1056 1369 1301 889 
Q 1547 409 2034 409 
Q 2525 409 2770 889 
Q 3016 1369 3016 2328 
Q 3016 3291 2770 3770 
Q 2525 4250 2034 4250 
z
M 2034 4750 
Q 2819 4750 3233 4129 
Q 3647 3509 3647 2328 
Q 3647 1150 3233 529 
Q 2819 -91 2034 -91 
Q 1250 -91 836 529 
Q 422 1150 422 2328 
Q 422 3509 836 4129 
Q 1250 4750 2034 4750 
z
" transform="scale(0.015625)"/>
       <path id="DejaVuSans-36" d="M 2113 2584 
Q 1688 2584 1439 2293 
Q 1191 2003 1191 1497 
Q 1191 994 1439 701 
Q 1688 409 2113 409 
Q 2538 409 2786 701 
Q 3034 994 3034 1497 
Q 3034 2003 2786 2293 
Q 2538 2584 2113 2584 
z
M 3366 4563 
L 3366 3988 
Q 3128 4100 2886 4159 
Q 2644 4219 2406 4219 
Q 1781 4219 1451 3797 
Q 1122 3375 1075 2522 
Q 1259 2794 1537 2939 
Q 1816 3084 2150 3084 
Q 2853 3084 3261 2657 
Q 3669 2231 3669 1497 
Q 3669 778 3244 343 
Q 2819 -91 2113 -91 
Q 1303 -91 875 529 
Q 447 1150 447 2328 
Q 447 3434 972 4092 
Q 1497 4750 2381 4750 
Q 2619 4750 2861 4703 
Q 3103 4656 3366 4563 
z
" transform="scale(0.015625)"/>
       <path id="DejaVuSans-2e" d="M 684 794 
L 1344 794 
L 1344 0 
L 684 0 
L 684 794 
z
" transform="scale(0.015625)"/>
      </defs>
      <use xlink:href="#DejaVuSans-31"/>
      <use xlink:href="#DejaVuSans-30" transform="translate(63.623047 0)"/>
      <use xlink:href="#DejaVuSans-36" transform="translate(127.246094 0)"/>
      <use xlink:href="#DejaVuSans-2e" transform="translate(190.869141 0)"/>
      <use xlink:href="#DejaVuSans-30" transform="translate(222.65625 0)"/>
     </g>
    </g>
   </g>
   <g id="xtick_2">
    <g id="line2d_3">
     <path d="M 606.397877 399.617147 
L 611.554724 401.496688 
" style="fill: none; stroke: #000000; stroke-width: 0.8; stroke-linecap: square"/>
    </g>
    <g id="text_2">
     <!-- 106.5 -->
     <g transform="translate(604.27351 421.623869) scale(0.1 -0.1)">
      <defs>
       <path id="DejaVuSans-35" d="M 691 4666 
L 3169 4666 
L 3169 4134 
L 1269 4134 
L 1269 2991 
Q 1406 3038 1543 3061 
Q 1681 3084 1819 3084 
Q 2600 3084 3056 2656 
Q 3513 2228 3513 1497 
Q 3513 744 3044 326 
Q 2575 -91 1722 -91 
Q 1428 -91 1123 -41 
Q 819 9 494 109 
L 494 744 
Q 775 591 1075 516 
Q 1375 441 1709 441 
Q 2250 441 2565 725 
Q 2881 1009 2881 1497 
Q 2881 1984 2565 2268 
Q 2250 2553 1709 2553 
Q 1456 2553 1204 2497 
Q 953 2441 691 2322 
L 691 4666 
z
" transform="scale(0.015625)"/>
      </defs>
      <use xlink:href="#DejaVuSans-31"/>
      <use xlink:href="#DejaVuSans-30" transform="translate(63.623047 0)"/>
      <use xlink:href="#DejaVuSans-36" transform="translate(127.246094 0)"/>
      <use xlink:href="#DejaVuSans-2e" transform="translate(190.869141 0)"/>
      <use xlink:href="#DejaVuSans-35" transform="translate(222.65625 0)"/>
     </g>
    </g>
   </g>
   <g id="xtick_3">
    <g id="line2d_4">
     <path d="M 583.571147 409.032502 
L 588.733396 410.948097 
" style="fill: none; stroke: #000000; stroke-width: 0.8; stroke-linecap: square"/>
    </g>
    <g id="text_3">
     <!-- 107.0 -->
     <g transform="translate(581.492809 431.206161) scale(0.1 -0.1)">
      <defs>
       <path id="DejaVuSans-37" d="M 525 4666 
L 3525 4666 
L 3525 4397 
L 1831 0 
L 1172 0 
L 2766 4134 
L 525 4134 
L 525 4666 
z
" transform="scale(0.015625)"/>
      </defs>
      <use xlink:href="#DejaVuSans-31"/>
      <use xlink:href="#DejaVuSans-30" transform="translate(63.623047 0)"/>
      <use xlink:href="#DejaVuSans-37" transform="translate(127.246094 0)"/>
      <use xlink:href="#DejaVuSans-2e" transform="translate(190.869141 0)"/>
      <use xlink:href="#DejaVuSans-30" transform="translate(222.65625 0)"/>
     </g>
    </g>
   </g>
   <g id="xtick_4">
    <g id="line2d_5">
     <path d="M 560.304859 418.629162 
L 565.471761 420.581857 
" style="fill: none; stroke: #000000; stroke-width: 0.8; stroke-linecap: square"/>
    </g>
    <g id="text_4">
     <!-- 107.5 -->
     <g transform="translate(558.272067 440.973549) scale(0.1 -0.1)">
      <use xlink:href="#DejaVuSans-31"/>
      <use xlink:href="#DejaVuSans-30" transform="translate(63.623047 0)"/>
      <use xlink:href="#DejaVuSans-37" transform="translate(127.246094 0)"/>
      <use xlink:href="#DejaVuSans-2e" transform="translate(190.869141 0)"/>
      <use xlink:href="#DejaVuSans-35" transform="translate(222.65625 0)"/>
     </g>
    </g>
   </g>
   <g id="xtick_5">
    <g id="line2d_6">
     <path d="M 536.586194 428.412414 
L 541.756953 430.403299 
" style="fill: none; stroke: #000000; stroke-width: 0.8; stroke-linecap: square"/>
    </g>
    <g id="text_5">
     <!-- 108.0 -->
     <g transform="translate(534.598409 450.931447) scale(0.1 -0.1)">
      <defs>
       <path id="DejaVuSans-38" d="M 2034 2216 
Q 1584 2216 1326 1975 
Q 1069 1734 1069 1313 
Q 1069 891 1326 650 
Q 1584 409 2034 409 
Q 2484 409 2743 651 
Q 3003 894 3003 1313 
Q 3003 1734 2745 1975 
Q 2488 2216 2034 2216 
z
M 1403 2484 
Q 997 2584 770 2862 
Q 544 3141 544 3541 
Q 544 4100 942 4425 
Q 1341 4750 2034 4750 
Q 2731 4750 3128 4425 
Q 3525 4100 3525 3541 
Q 3525 3141 3298 2862 
Q 3072 2584 2669 2484 
Q 3125 2378 3379 2068 
Q 3634 1759 3634 1313 
Q 3634 634 3220 271 
Q 2806 -91 2034 -91 
Q 1263 -91 848 271 
Q 434 634 434 1313 
Q 434 1759 690 2068 
Q 947 2378 1403 2484 
z
M 1172 3481 
Q 1172 3119 1398 2916 
Q 1625 2713 2034 2713 
Q 2441 2713 2670 2916 
Q 2900 3119 2900 3481 
Q 2900 3844 2670 4047 
Q 2441 4250 2034 4250 
Q 1625 4250 1398 4047 
Q 1172 3844 1172 3481 
z
" transform="scale(0.015625)"/>
      </defs>
      <use xlink:href="#DejaVuSans-31"/>
      <use xlink:href="#DejaVuSans-30" transform="translate(63.623047 0)"/>
      <use xlink:href="#DejaVuSans-38" transform="translate(127.246094 0)"/>
      <use xlink:href="#DejaVuSans-2e" transform="translate(190.869141 0)"/>
      <use xlink:href="#DejaVuSans-30" transform="translate(222.65625 0)"/>
     </g>
    </g>
   </g>
   <g id="xtick_6">
    <g id="line2d_7">
     <path d="M 512.401827 438.387754 
L 517.575598 440.41796 
" style="fill: none; stroke: #000000; stroke-width: 0.8; stroke-linecap: square"/>
    </g>
    <g id="text_6">
     <!-- 108.5 -->
     <g transform="translate(510.458455 461.085485) scale(0.1 -0.1)">
      <use xlink:href="#DejaVuSans-31"/>
      <use xlink:href="#DejaVuSans-30" transform="translate(63.623047 0)"/>
      <use xlink:href="#DejaVuSans-38" transform="translate(127.246094 0)"/>
      <use xlink:href="#DejaVuSans-2e" transform="translate(190.869141 0)"/>
      <use xlink:href="#DejaVuSans-35" transform="translate(222.65625 0)"/>
     </g>
    </g>
   </g>
   <g id="xtick_7">
    <g id="line2d_8">
     <path d="M 487.737908 448.560896 
L 492.913792 450.631599 
" style="fill: none; stroke: #000000; stroke-width: 0.8; stroke-linecap: square"/>
    </g>
    <g id="text_7">
     <!-- 109.0 -->
     <g transform="translate(485.83829 471.441515) scale(0.1 -0.1)">
      <defs>
       <path id="DejaVuSans-39" d="M 703 97 
L 703 672 
Q 941 559 1184 500 
Q 1428 441 1663 441 
Q 2288 441 2617 861 
Q 2947 1281 2994 2138 
Q 2813 1869 2534 1725 
Q 2256 1581 1919 1581 
Q 1219 1581 811 2004 
Q 403 2428 403 3163 
Q 403 3881 828 4315 
Q 1253 4750 1959 4750 
Q 2769 4750 3195 4129 
Q 3622 3509 3622 2328 
Q 3622 1225 3098 567 
Q 2575 -91 1691 -91 
Q 1453 -91 1209 -44 
Q 966 3 703 97 
z
M 1959 2075 
Q 2384 2075 2632 2365 
Q 2881 2656 2881 3163 
Q 2881 3666 2632 3958 
Q 2384 4250 1959 4250 
Q 1534 4250 1286 3958 
Q 1038 3666 1038 3163 
Q 1038 2656 1286 2365 
Q 1534 2075 1959 2075 
z
" transform="scale(0.015625)"/>
      </defs>
      <use xlink:href="#DejaVuSans-31"/>
      <use xlink:href="#DejaVuSans-30" transform="translate(63.623047 0)"/>
      <use xlink:href="#DejaVuSans-39" transform="translate(127.246094 0)"/>
      <use xlink:href="#DejaVuSans-2e" transform="translate(190.869141 0)"/>
      <use xlink:href="#DejaVuSans-30" transform="translate(222.65625 0)"/>
     </g>
    </g>
   </g>
   <g id="xtick_8">
    <g id="line2d_9">
     <path d="M 462.58003 458.937781 
L 467.757073 461.050205 
" style="fill: none; stroke: #000000; stroke-width: 0.8; stroke-linecap: square"/>
    </g>
    <g id="text_8">
     <!-- 109.5 -->
     <g transform="translate(460.723441 482.005624) scale(0.1 -0.1)">
      <use xlink:href="#DejaVuSans-31"/>
      <use xlink:href="#DejaVuSans-30" transform="translate(63.623047 0)"/>
      <use xlink:href="#DejaVuSans-39" transform="translate(127.246094 0)"/>
      <use xlink:href="#DejaVuSans-2e" transform="translate(190.869141 0)"/>
      <use xlink:href="#DejaVuSans-35" transform="translate(222.65625 0)"/>
     </g>
    </g>
   </g>
   <g id="text_9">
    <!-- Engagement ($r_{eng}$) -->
    <g transform="translate(533.434664 473.927932) rotate(-22.442007) scale(0.1 -0.1)">
     <defs>
      <path id="DejaVuSans-45" d="M 628 4666 
L 3578 4666 
L 3578 4134 
L 1259 4134 
L 1259 2753 
L 3481 2753 
L 3481 2222 
L 1259 2222 
L 1259 531 
L 3634 531 
L 3634 0 
L 628 0 
L 628 4666 
z
" transform="scale(0.015625)"/>
      <path id="DejaVuSans-6e" d="M 3513 2113 
L 3513 0 
L 2938 0 
L 2938 2094 
Q 2938 2591 2744 2837 
Q 2550 3084 2163 3084 
Q 1697 3084 1428 2787 
Q 1159 2491 1159 1978 
L 1159 0 
L 581 0 
L 581 3500 
L 1159 3500 
L 1159 2956 
Q 1366 3272 1645 3428 
Q 1925 3584 2291 3584 
Q 2894 3584 3203 3211 
Q 3513 2838 3513 2113 
z
" transform="scale(0.015625)"/>
      <path id="DejaVuSans-67" d="M 2906 1791 
Q 2906 2416 2648 2759 
Q 2391 3103 1925 3103 
Q 1463 3103 1205 2759 
Q 947 2416 947 1791 
Q 947 1169 1205 825 
Q 1463 481 1925 481 
Q 2391 481 2648 825 
Q 2906 1169 2906 1791 
z
M 3481 434 
Q 3481 -459 3084 -895 
Q 2688 -1331 1869 -1331 
Q 1566 -1331 1297 -1286 
Q 1028 -1241 775 -1147 
L 775 -588 
Q 1028 -725 1275 -790 
Q 1522 -856 1778 -856 
Q 2344 -856 2625 -561 
Q 2906 -266 2906 331 
L 2906 616 
Q 2728 306 2450 153 
Q 2172 0 1784 0 
Q 1141 0 747 490 
Q 353 981 353 1791 
Q 353 2603 747 3093 
Q 1141 3584 1784 3584 
Q 2172 3584 2450 3431 
Q 2728 3278 2906 2969 
L 2906 3500 
L 3481 3500 
L 3481 434 
z
" transform="scale(0.015625)"/>
      <path id="DejaVuSans-61" d="M 2194 1759 
Q 1497 1759 1228 1600 
Q 959 1441 959 1056 
Q 959 750 1161 570 
Q 1363 391 1709 391 
Q 2188 391 2477 730 
Q 2766 1069 2766 1631 
L 2766 1759 
L 2194 1759 
z
M 3341 1997 
L 3341 0 
L 2766 0 
L 2766 531 
Q 2569 213 2275 61 
Q 1981 -91 1556 -91 
Q 1019 -91 701 211 
Q 384 513 384 1019 
Q 384 1609 779 1909 
Q 1175 2209 1959 2209 
L 2766 2209 
L 2766 2266 
Q 2766 2663 2505 2880 
Q 2244 3097 1772 3097 
Q 1472 3097 1187 3025 
Q 903 2953 641 2809 
L 641 3341 
Q 956 3463 1253 3523 
Q 1550 3584 1831 3584 
Q 2591 3584 2966 3190 
Q 3341 2797 3341 1997 
z
" transform="scale(0.015625)"/>
      <path id="DejaVuSans-65" d="M 3597 1894 
L 3597 1613 
L 953 1613 
Q 991 1019 1311 708 
Q 1631 397 2203 397 
Q 2534 397 2845 478 
Q 3156 559 3463 722 
L 3463 178 
Q 3153 47 2828 -22 
Q 2503 -91 2169 -91 
Q 1331 -91 842 396 
Q 353 884 353 1716 
Q 353 2575 817 3079 
Q 1281 3584 2069 3584 
Q 2775 3584 3186 3129 
Q 3597 2675 3597 1894 
z
M 3022 2063 
Q 3016 2534 2758 2815 
Q 2500 3097 2075 3097 
Q 1594 3097 1305 2825 
Q 1016 2553 972 2059 
L 3022 2063 
z
" transform="scale(0.015625)"/>
      <path id="DejaVuSans-6d" d="M 3328 2828 
Q 3544 3216 3844 3400 
Q 4144 3584 4550 3584 
Q 5097 3584 5394 3201 
Q 5691 2819 5691 2113 
L 5691 0 
L 5113 0 
L 5113 2094 
Q 5113 2597 4934 2840 
Q 4756 3084 4391 3084 
Q 3944 3084 3684 2787 
Q 3425 2491 3425 1978 
L 3425 0 
L 2847 0 
L 2847 2094 
Q 2847 2600 2669 2842 
Q 2491 3084 2119 3084 
Q 1678 3084 1418 2786 
Q 1159 2488 1159 1978 
L 1159 0 
L 581 0 
L 581 3500 
L 1159 3500 
L 1159 2956 
Q 1356 3278 1631 3431 
Q 1906 3584 2284 3584 
Q 2666 3584 2933 3390 
Q 3200 3197 3328 2828 
z
" transform="scale(0.015625)"/>
      <path id="DejaVuSans-74" d="M 1172 4494 
L 1172 3500 
L 2356 3500 
L 2356 3053 
L 1172 3053 
L 1172 1153 
Q 1172 725 1289 603 
Q 1406 481 1766 481 
L 2356 481 
L 2356 0 
L 1766 0 
Q 1100 0 847 248 
Q 594 497 594 1153 
L 594 3053 
L 172 3053 
L 172 3500 
L 594 3500 
L 594 4494 
L 1172 4494 
z
" transform="scale(0.015625)"/>
      <path id="DejaVuSans-20" transform="scale(0.015625)"/>
      <path id="DejaVuSans-28" d="M 1984 4856 
Q 1566 4138 1362 3434 
Q 1159 2731 1159 2009 
Q 1159 1288 1364 580 
Q 1569 -128 1984 -844 
L 1484 -844 
Q 1016 -109 783 600 
Q 550 1309 550 2009 
Q 550 2706 781 3412 
Q 1013 4119 1484 4856 
L 1984 4856 
z
" transform="scale(0.015625)"/>
      <path id="DejaVuSans-Oblique-72" d="M 2853 2969 
Q 2766 3016 2653 3041 
Q 2541 3066 2413 3066 
Q 1953 3066 1609 2717 
Q 1266 2369 1153 1784 
L 800 0 
L 225 0 
L 909 3500 
L 1484 3500 
L 1375 2956 
Q 1603 3259 1920 3421 
Q 2238 3584 2597 3584 
Q 2691 3584 2781 3573 
Q 2872 3563 2963 3538 
L 2853 2969 
z
" transform="scale(0.015625)"/>
      <path id="DejaVuSans-Oblique-65" d="M 3078 2063 
Q 3088 2113 3092 2166 
Q 3097 2219 3097 2272 
Q 3097 2653 2873 2875 
Q 2650 3097 2266 3097 
Q 1838 3097 1509 2826 
Q 1181 2556 1013 2059 
L 3078 2063 
z
M 3578 1613 
L 903 1613 
Q 884 1494 878 1425 
Q 872 1356 872 1306 
Q 872 872 1139 634 
Q 1406 397 1894 397 
Q 2269 397 2603 481 
Q 2938 566 3225 728 
L 3116 159 
Q 2806 34 2476 -28 
Q 2147 -91 1806 -91 
Q 1078 -91 686 257 
Q 294 606 294 1247 
Q 294 1794 489 2264 
Q 684 2734 1063 3103 
Q 1306 3334 1642 3459 
Q 1978 3584 2356 3584 
Q 2950 3584 3301 3228 
Q 3653 2872 3653 2272 
Q 3653 2128 3634 1964 
Q 3616 1800 3578 1613 
z
" transform="scale(0.015625)"/>
      <path id="DejaVuSans-Oblique-6e" d="M 3566 2113 
L 3156 0 
L 2578 0 
L 2988 2091 
Q 3016 2238 3031 2350 
Q 3047 2463 3047 2528 
Q 3047 2791 2881 2937 
Q 2716 3084 2419 3084 
Q 1956 3084 1622 2776 
Q 1288 2469 1184 1941 
L 800 0 
L 225 0 
L 903 3500 
L 1478 3500 
L 1363 2950 
Q 1603 3253 1940 3418 
Q 2278 3584 2650 3584 
Q 3113 3584 3367 3334 
Q 3622 3084 3622 2631 
Q 3622 2519 3608 2391 
Q 3594 2263 3566 2113 
z
" transform="scale(0.015625)"/>
      <path id="DejaVuSans-Oblique-67" d="M 3816 3500 
L 3219 434 
Q 3047 -456 2561 -893 
Q 2075 -1331 1253 -1331 
Q 950 -1331 690 -1286 
Q 431 -1241 206 -1147 
L 313 -588 
Q 525 -725 762 -790 
Q 1000 -856 1269 -856 
Q 1816 -856 2167 -557 
Q 2519 -259 2631 300 
L 2681 563 
Q 2441 288 2122 144 
Q 1803 0 1434 0 
Q 903 0 598 351 
Q 294 703 294 1319 
Q 294 1803 478 2267 
Q 663 2731 997 3091 
Q 1219 3328 1514 3456 
Q 1809 3584 2131 3584 
Q 2484 3584 2746 3420 
Q 3009 3256 3138 2956 
L 3238 3500 
L 3816 3500 
z
M 2950 2216 
Q 2950 2641 2750 2872 
Q 2550 3103 2181 3103 
Q 1953 3103 1747 3012 
Q 1541 2922 1394 2759 
Q 1156 2491 1023 2127 
Q 891 1763 891 1375 
Q 891 944 1092 712 
Q 1294 481 1672 481 
Q 2219 481 2584 976 
Q 2950 1472 2950 2216 
z
" transform="scale(0.015625)"/>
      <path id="DejaVuSans-29" d="M 513 4856 
L 1013 4856 
Q 1481 4119 1714 3412 
Q 1947 2706 1947 2009 
Q 1947 1309 1714 600 
Q 1481 -109 1013 -844 
L 513 -844 
Q 928 -128 1133 580 
Q 1338 1288 1338 2009 
Q 1338 2731 1133 3434 
Q 928 4138 513 4856 
z
" transform="scale(0.015625)"/>
     </defs>
     <use xlink:href="#DejaVuSans-45" transform="translate(0 0.125)"/>
     <use xlink:href="#DejaVuSans-6e" transform="translate(63.183594 0.125)"/>
     <use xlink:href="#DejaVuSans-67" transform="translate(126.5625 0.125)"/>
     <use xlink:href="#DejaVuSans-61" transform="translate(190.039062 0.125)"/>
     <use xlink:href="#DejaVuSans-67" transform="translate(251.318359 0.125)"/>
     <use xlink:href="#DejaVuSans-65" transform="translate(314.794922 0.125)"/>
     <use xlink:href="#DejaVuSans-6d" transform="translate(376.318359 0.125)"/>
     <use xlink:href="#DejaVuSans-65" transform="translate(473.730469 0.125)"/>
     <use xlink:href="#DejaVuSans-6e" transform="translate(535.253906 0.125)"/>
     <use xlink:href="#DejaVuSans-74" transform="translate(598.632812 0.125)"/>
     <use xlink:href="#DejaVuSans-20" transform="translate(637.841797 0.125)"/>
     <use xlink:href="#DejaVuSans-28" transform="translate(669.628906 0.125)"/>
     <use xlink:href="#DejaVuSans-Oblique-72" transform="translate(708.642578 0.125)"/>
     <use xlink:href="#DejaVuSans-Oblique-65" transform="translate(749.755859 -16.28125) scale(0.7)"/>
     <use xlink:href="#DejaVuSans-Oblique-6e" transform="translate(792.822266 -16.28125) scale(0.7)"/>
     <use xlink:href="#DejaVuSans-Oblique-67" transform="translate(837.1875 -16.28125) scale(0.7)"/>
     <use xlink:href="#DejaVuSans-29" transform="translate(884.355469 0.125)"/>
    </g>
   </g>
  </g>
  <g id="axis3d_2">
   <g id="line2d_10">
    <path d="M 250.016493 383.946471 
L 448.793514 466.046994 
" style="fill: none; stroke: #000000; stroke-width: 0.8; stroke-linecap: square"/>
   </g>
   <g id="xtick_9">
    <g id="line2d_11">
     <path d="M 257.945797 385.905241 
L 252.798298 387.73289 
" style="fill: none; stroke: #000000; stroke-width: 0.8; stroke-linecap: square"/>
    </g>
    <g id="text_10">
     <!-- 0.0 -->
     <g transform="translate(237.873952 407.669848) scale(0.1 -0.1)">
      <use xlink:href="#DejaVuSans-30"/>
      <use xlink:href="#DejaVuSans-2e" transform="translate(63.623047 0)"/>
      <use xlink:href="#DejaVuSans-30" transform="translate(95.410156 0)"/>
     </g>
    </g>
   </g>
   <g id="xtick_10">
    <g id="line2d_12">
     <path d="M 280.920204 395.381509 
L 275.766056 397.244942 
" style="fill: none; stroke: #000000; stroke-width: 0.8; stroke-linecap: square"/>
    </g>
    <g id="text_11">
     <!-- 2.5 -->
     <g transform="translate(260.800086 417.313314) scale(0.1 -0.1)">
      <defs>
       <path id="DejaVuSans-32" d="M 1228 531 
L 3431 531 
L 3431 0 
L 469 0 
L 469 531 
Q 828 903 1448 1529 
Q 2069 2156 2228 2338 
Q 2531 2678 2651 2914 
Q 2772 3150 2772 3378 
Q 2772 3750 2511 3984 
Q 2250 4219 1831 4219 
Q 1534 4219 1204 4116 
Q 875 4013 500 3803 
L 500 4441 
Q 881 4594 1212 4672 
Q 1544 4750 1819 4750 
Q 2544 4750 2975 4387 
Q 3406 4025 3406 3419 
Q 3406 3131 3298 2873 
Q 3191 2616 2906 2266 
Q 2828 2175 2409 1742 
Q 1991 1309 1228 531 
z
" transform="scale(0.015625)"/>
      </defs>
      <use xlink:href="#DejaVuSans-32"/>
      <use xlink:href="#DejaVuSans-2e" transform="translate(63.623047 0)"/>
      <use xlink:href="#DejaVuSans-35" transform="translate(95.410156 0)"/>
     </g>
    </g>
   </g>
   <g id="xtick_11">
    <g id="line2d_13">
     <path d="M 304.346234 405.044058 
L 299.186172 406.944338 
" style="fill: none; stroke: #000000; stroke-width: 0.8; stroke-linecap: square"/>
    </g>
    <g id="text_12">
     <!-- 5.0 -->
     <g transform="translate(284.178283 427.146932) scale(0.1 -0.1)">
      <use xlink:href="#DejaVuSans-35"/>
      <use xlink:href="#DejaVuSans-2e" transform="translate(63.623047 0)"/>
      <use xlink:href="#DejaVuSans-30" transform="translate(95.410156 0)"/>
     </g>
    </g>
   </g>
   <g id="xtick_12">
    <g id="line2d_14">
     <path d="M 328.237339 414.898436 
L 323.072143 416.836666 
" style="fill: none; stroke: #000000; stroke-width: 0.8; stroke-linecap: square"/>
    </g>
    <g id="text_13">
     <!-- 7.5 -->
     <g transform="translate(308.022048 437.176383) scale(0.1 -0.1)">
      <use xlink:href="#DejaVuSans-37"/>
      <use xlink:href="#DejaVuSans-2e" transform="translate(63.623047 0)"/>
      <use xlink:href="#DejaVuSans-35" transform="translate(95.410156 0)"/>
     </g>
    </g>
   </g>
   <g id="xtick_13">
    <g id="line2d_15">
     <path d="M 352.607505 424.950413 
L 347.438008 426.927741 
" style="fill: none; stroke: #000000; stroke-width: 0.8; stroke-linecap: square"/>
    </g>
    <g id="text_14">
     <!-- 10.0 -->
     <g transform="translate(329.164177 447.407575) scale(0.1 -0.1)">
      <use xlink:href="#DejaVuSans-31"/>
      <use xlink:href="#DejaVuSans-30" transform="translate(63.623047 0)"/>
      <use xlink:href="#DejaVuSans-2e" transform="translate(127.246094 0)"/>
      <use xlink:href="#DejaVuSans-30" transform="translate(159.033203 0)"/>
     </g>
    </g>
   </g>
   <g id="xtick_14">
    <g id="line2d_16">
     <path d="M 377.471289 435.205993 
L 372.298377 437.223615 
" style="fill: none; stroke: #000000; stroke-width: 0.8; stroke-linecap: square"/>
    </g>
    <g id="text_15">
     <!-- 12.5 -->
     <g transform="translate(353.981789 457.846657) scale(0.1 -0.1)">
      <use xlink:href="#DejaVuSans-31"/>
      <use xlink:href="#DejaVuSans-32" transform="translate(63.623047 0)"/>
      <use xlink:href="#DejaVuSans-2e" transform="translate(127.246094 0)"/>
      <use xlink:href="#DejaVuSans-35" transform="translate(159.033203 0)"/>
     </g>
    </g>
   </g>
   <g id="xtick_15">
    <g id="line2d_17">
     <path d="M 402.84384 445.671424 
L 397.668457 447.730584 
" style="fill: none; stroke: #000000; stroke-width: 0.8; stroke-linecap: square"/>
    </g>
    <g id="text_16">
     <!-- 15.0 -->
     <g transform="translate(379.308852 468.500031) scale(0.1 -0.1)">
      <use xlink:href="#DejaVuSans-31"/>
      <use xlink:href="#DejaVuSans-35" transform="translate(63.623047 0)"/>
      <use xlink:href="#DejaVuSans-2e" transform="translate(127.246094 0)"/>
      <use xlink:href="#DejaVuSans-30" transform="translate(159.033203 0)"/>
     </g>
    </g>
   </g>
   <g id="xtick_16">
    <g id="line2d_18">
     <path d="M 428.740936 456.353215 
L 423.564087 458.455208 
" style="fill: none; stroke: #000000; stroke-width: 0.8; stroke-linecap: square"/>
    </g>
    <g id="text_17">
     <!-- 17.5 -->
     <g transform="translate(405.161216 479.374363) scale(0.1 -0.1)">
      <use xlink:href="#DejaVuSans-31"/>
      <use xlink:href="#DejaVuSans-37" transform="translate(63.623047 0)"/>
      <use xlink:href="#DejaVuSans-2e" transform="translate(127.246094 0)"/>
      <use xlink:href="#DejaVuSans-35" transform="translate(159.033203 0)"/>
     </g>
    </g>
   </g>
   <g id="text_18">
    <!-- Diversity ($r_{div}$) -->
    <g transform="translate(288.726205 443.315768) rotate(-337.557993) scale(0.1 -0.1)">
     <defs>
      <path id="DejaVuSans-44" d="M 1259 4147 
L 1259 519 
L 2022 519 
Q 2988 519 3436 956 
Q 3884 1394 3884 2338 
Q 3884 3275 3436 3711 
Q 2988 4147 2022 4147 
L 1259 4147 
z
M 628 4666 
L 1925 4666 
Q 3281 4666 3915 4102 
Q 4550 3538 4550 2338 
Q 4550 1131 3912 565 
Q 3275 0 1925 0 
L 628 0 
L 628 4666 
z
" transform="scale(0.015625)"/>
      <path id="DejaVuSans-69" d="M 603 3500 
L 1178 3500 
L 1178 0 
L 603 0 
L 603 3500 
z
M 603 4863 
L 1178 4863 
L 1178 4134 
L 603 4134 
L 603 4863 
z
" transform="scale(0.015625)"/>
      <path id="DejaVuSans-76" d="M 191 3500 
L 800 3500 
L 1894 563 
L 2988 3500 
L 3597 3500 
L 2284 0 
L 1503 0 
L 191 3500 
z
" transform="scale(0.015625)"/>
      <path id="DejaVuSans-72" d="M 2631 2963 
Q 2534 3019 2420 3045 
Q 2306 3072 2169 3072 
Q 1681 3072 1420 2755 
Q 1159 2438 1159 1844 
L 1159 0 
L 581 0 
L 581 3500 
L 1159 3500 
L 1159 2956 
Q 1341 3275 1631 3429 
Q 1922 3584 2338 3584 
Q 2397 3584 2469 3576 
Q 2541 3569 2628 3553 
L 2631 2963 
z
" transform="scale(0.015625)"/>
      <path id="DejaVuSans-73" d="M 2834 3397 
L 2834 2853 
Q 2591 2978 2328 3040 
Q 2066 3103 1784 3103 
Q 1356 3103 1142 2972 
Q 928 2841 928 2578 
Q 928 2378 1081 2264 
Q 1234 2150 1697 2047 
L 1894 2003 
Q 2506 1872 2764 1633 
Q 3022 1394 3022 966 
Q 3022 478 2636 193 
Q 2250 -91 1575 -91 
Q 1294 -91 989 -36 
Q 684 19 347 128 
L 347 722 
Q 666 556 975 473 
Q 1284 391 1588 391 
Q 1994 391 2212 530 
Q 2431 669 2431 922 
Q 2431 1156 2273 1281 
Q 2116 1406 1581 1522 
L 1381 1569 
Q 847 1681 609 1914 
Q 372 2147 372 2553 
Q 372 3047 722 3315 
Q 1072 3584 1716 3584 
Q 2034 3584 2315 3537 
Q 2597 3491 2834 3397 
z
" transform="scale(0.015625)"/>
      <path id="DejaVuSans-79" d="M 2059 -325 
Q 1816 -950 1584 -1140 
Q 1353 -1331 966 -1331 
L 506 -1331 
L 506 -850 
L 844 -850 
Q 1081 -850 1212 -737 
Q 1344 -625 1503 -206 
L 1606 56 
L 191 3500 
L 800 3500 
L 1894 763 
L 2988 3500 
L 3597 3500 
L 2059 -325 
z
" transform="scale(0.015625)"/>
      <path id="DejaVuSans-Oblique-64" d="M 2675 525 
Q 2444 222 2128 65 
Q 1813 -91 1428 -91 
Q 903 -91 598 267 
Q 294 625 294 1247 
Q 294 1766 478 2236 
Q 663 2706 1013 3078 
Q 1244 3325 1534 3454 
Q 1825 3584 2144 3584 
Q 2481 3584 2739 3421 
Q 2997 3259 3138 2956 
L 3513 4863 
L 4091 4863 
L 3144 0 
L 2566 0 
L 2675 525 
z
M 891 1350 
Q 891 897 1095 644 
Q 1300 391 1663 391 
Q 1931 391 2161 520 
Q 2391 650 2566 903 
Q 2750 1166 2856 1509 
Q 2963 1853 2963 2188 
Q 2963 2622 2758 2865 
Q 2553 3109 2194 3109 
Q 1922 3109 1687 2981 
Q 1453 2853 1288 2613 
Q 1106 2353 998 2009 
Q 891 1666 891 1350 
z
" transform="scale(0.015625)"/>
      <path id="DejaVuSans-Oblique-69" d="M 1172 4863 
L 1747 4863 
L 1606 4134 
L 1031 4134 
L 1172 4863 
z
M 909 3500 
L 1484 3500 
L 800 0 
L 225 0 
L 909 3500 
z
" transform="scale(0.015625)"/>
      <path id="DejaVuSans-Oblique-76" d="M 459 3500 
L 1069 3500 
L 1581 525 
L 3256 3500 
L 3866 3500 
L 1875 0 
L 1100 0 
L 459 3500 
z
" transform="scale(0.015625)"/>
     </defs>
     <use xlink:href="#DejaVuSans-44" transform="translate(0 0.015625)"/>
     <use xlink:href="#DejaVuSans-69" transform="translate(77.001953 0.015625)"/>
     <use xlink:href="#DejaVuSans-76" transform="translate(104.785156 0.015625)"/>
     <use xlink:href="#DejaVuSans-65" transform="translate(163.964844 0.015625)"/>
     <use xlink:href="#DejaVuSans-72" transform="translate(225.488281 0.015625)"/>
     <use xlink:href="#DejaVuSans-73" transform="translate(266.601562 0.015625)"/>
     <use xlink:href="#DejaVuSans-69" transform="translate(318.701172 0.015625)"/>
     <use xlink:href="#DejaVuSans-74" transform="translate(346.484375 0.015625)"/>
     <use xlink:href="#DejaVuSans-79" transform="translate(385.693359 0.015625)"/>
     <use xlink:href="#DejaVuSans-20" transform="translate(444.873047 0.015625)"/>
     <use xlink:href="#DejaVuSans-28" transform="translate(476.660156 0.015625)"/>
     <use xlink:href="#DejaVuSans-Oblique-72" transform="translate(515.673828 0.015625)"/>
     <use xlink:href="#DejaVuSans-Oblique-64" transform="translate(556.787109 -16.390625) scale(0.7)"/>
     <use xlink:href="#DejaVuSans-Oblique-69" transform="translate(601.220703 -16.390625) scale(0.7)"/>
     <use xlink:href="#DejaVuSans-Oblique-76" transform="translate(620.668945 -16.390625) scale(0.7)"/>
     <use xlink:href="#DejaVuSans-29" transform="translate(664.829102 0.015625)"/>
    </g>
   </g>
  </g>
  <g id="axis3d_3">
   <g id="line2d_19">
    <path d="M 250.016493 383.946471 
L 243.852217 182.754551 
" style="fill: none; stroke: #000000; stroke-width: 0.8; stroke-linecap: square"/>
   </g>
   <g id="xtick_17">
    <g id="line2d_20">
     <path d="M 251.317968 369.790118 
L 246.160873 371.586524 
" style="fill: none; stroke: #000000; stroke-width: 0.8; stroke-linecap: square"/>
    </g>
    <g id="text_19">
     <!-- 20 -->
     <g transform="translate(223.405571 377.98661) scale(0.1 -0.1)">
      <use xlink:href="#DejaVuSans-32"/>
      <use xlink:href="#DejaVuSans-30" transform="translate(63.623047 0)"/>
     </g>
    </g>
   </g>
   <g id="xtick_18">
    <g id="line2d_21">
     <path d="M 250.119742 330.33835 
L 244.929035 332.071208 
" style="fill: none; stroke: #000000; stroke-width: 0.8; stroke-linecap: square"/>
    </g>
    <g id="text_20">
     <!-- 30 -->
     <g transform="translate(222.075752 338.513681) scale(0.1 -0.1)">
      <defs>
       <path id="DejaVuSans-33" d="M 2597 2516 
Q 3050 2419 3304 2112 
Q 3559 1806 3559 1356 
Q 3559 666 3084 287 
Q 2609 -91 1734 -91 
Q 1441 -91 1130 -33 
Q 819 25 488 141 
L 488 750 
Q 750 597 1062 519 
Q 1375 441 1716 441 
Q 2309 441 2620 675 
Q 2931 909 2931 1356 
Q 2931 1769 2642 2001 
Q 2353 2234 1838 2234 
L 1294 2234 
L 1294 2753 
L 1863 2753 
Q 2328 2753 2575 2939 
Q 2822 3125 2822 3475 
Q 2822 3834 2567 4026 
Q 2313 4219 1838 4219 
Q 1578 4219 1281 4162 
Q 984 4106 628 3988 
L 628 4550 
Q 988 4650 1302 4700 
Q 1616 4750 1894 4750 
Q 2613 4750 3031 4423 
Q 3450 4097 3450 3541 
Q 3450 3153 3228 2886 
Q 3006 2619 2597 2516 
z
" transform="scale(0.015625)"/>
      </defs>
      <use xlink:href="#DejaVuSans-33"/>
      <use xlink:href="#DejaVuSans-30" transform="translate(63.623047 0)"/>
     </g>
    </g>
   </g>
   <g id="xtick_19">
    <g id="line2d_22">
     <path d="M 248.906887 290.404894 
L 243.682128 292.072513 
" style="fill: none; stroke: #000000; stroke-width: 0.8; stroke-linecap: square"/>
    </g>
    <g id="text_21">
     <!-- 40 -->
     <g transform="translate(220.729685 298.558502) scale(0.1 -0.1)">
      <defs>
       <path id="DejaVuSans-34" d="M 2419 4116 
L 825 1625 
L 2419 1625 
L 2419 4116 
z
M 2253 4666 
L 3047 4666 
L 3047 1625 
L 3713 1625 
L 3713 1100 
L 3047 1100 
L 3047 0 
L 2419 0 
L 2419 1100 
L 313 1100 
L 313 1709 
L 2253 4666 
z
" transform="scale(0.015625)"/>
      </defs>
      <use xlink:href="#DejaVuSans-34"/>
      <use xlink:href="#DejaVuSans-30" transform="translate(63.623047 0)"/>
     </g>
    </g>
   </g>
   <g id="xtick_20">
    <g id="line2d_23">
     <path d="M 247.679132 249.980875 
L 242.419874 251.581515 
" style="fill: none; stroke: #000000; stroke-width: 0.8; stroke-linecap: square"/>
    </g>
    <g id="text_22">
     <!-- 50 -->
     <g transform="translate(219.367073 258.112181) scale(0.1 -0.1)">
      <use xlink:href="#DejaVuSans-35"/>
      <use xlink:href="#DejaVuSans-30" transform="translate(63.623047 0)"/>
     </g>
    </g>
   </g>
   <g id="xtick_21">
    <g id="line2d_24">
     <path d="M 246.436202 209.057198 
L 241.141988 210.589068 
" style="fill: none; stroke: #000000; stroke-width: 0.8; stroke-linecap: square"/>
    </g>
    <g id="text_23">
     <!-- 60 -->
     <g transform="translate(217.987607 217.165605) scale(0.1 -0.1)">
      <use xlink:href="#DejaVuSans-36"/>
      <use xlink:href="#DejaVuSans-30" transform="translate(63.623047 0)"/>
     </g>
    </g>
   </g>
   <g id="text_24">
    <!-- Fairness ($r_{fair}$) -->
    <g transform="translate(199.489114 250.637102) rotate(-271.754924) scale(0.1 -0.1)">
     <defs>
      <path id="DejaVuSans-46" d="M 628 4666 
L 3309 4666 
L 3309 4134 
L 1259 4134 
L 1259 2759 
L 3109 2759 
L 3109 2228 
L 1259 2228 
L 1259 0 
L 628 0 
L 628 4666 
z
" transform="scale(0.015625)"/>
      <path id="DejaVuSans-Oblique-66" d="M 3059 4863 
L 2969 4384 
L 2419 4384 
Q 2106 4384 1964 4261 
Q 1822 4138 1753 3809 
L 1691 3500 
L 2638 3500 
L 2553 3053 
L 1606 3053 
L 1013 0 
L 434 0 
L 1031 3053 
L 481 3053 
L 563 3500 
L 1113 3500 
L 1159 3744 
Q 1278 4363 1576 4613 
Q 1875 4863 2516 4863 
L 3059 4863 
z
" transform="scale(0.015625)"/>
      <path id="DejaVuSans-Oblique-61" d="M 3438 1997 
L 3047 0 
L 2472 0 
L 2578 531 
Q 2325 219 2001 64 
Q 1678 -91 1281 -91 
Q 834 -91 548 182 
Q 263 456 263 884 
Q 263 1497 752 1853 
Q 1241 2209 2100 2209 
L 2900 2209 
L 2931 2363 
Q 2938 2388 2941 2417 
Q 2944 2447 2944 2509 
Q 2944 2788 2717 2942 
Q 2491 3097 2081 3097 
Q 1800 3097 1504 3025 
Q 1209 2953 897 2809 
L 997 3341 
Q 1322 3463 1633 3523 
Q 1944 3584 2234 3584 
Q 2853 3584 3176 3315 
Q 3500 3047 3500 2534 
Q 3500 2431 3484 2292 
Q 3469 2153 3438 1997 
z
M 2816 1759 
L 2241 1759 
Q 1534 1759 1195 1570 
Q 856 1381 856 984 
Q 856 709 1029 553 
Q 1203 397 1509 397 
Q 1978 397 2328 733 
Q 2678 1069 2791 1631 
L 2816 1759 
z
" transform="scale(0.015625)"/>
     </defs>
     <use xlink:href="#DejaVuSans-46" transform="translate(0 0.015625)"/>
     <use xlink:href="#DejaVuSans-61" transform="translate(57.519531 0.015625)"/>
     <use xlink:href="#DejaVuSans-69" transform="translate(118.798828 0.015625)"/>
     <use xlink:href="#DejaVuSans-72" transform="translate(146.582031 0.015625)"/>
     <use xlink:href="#DejaVuSans-6e" transform="translate(187.695312 0.015625)"/>
     <use xlink:href="#DejaVuSans-65" transform="translate(251.074219 0.015625)"/>
     <use xlink:href="#DejaVuSans-73" transform="translate(312.597656 0.015625)"/>
     <use xlink:href="#DejaVuSans-73" transform="translate(364.697266 0.015625)"/>
     <use xlink:href="#DejaVuSans-20" transform="translate(416.796875 0.015625)"/>
     <use xlink:href="#DejaVuSans-28" transform="translate(448.583984 0.015625)"/>
     <use xlink:href="#DejaVuSans-Oblique-72" transform="translate(487.597656 0.015625)"/>
     <use xlink:href="#DejaVuSans-Oblique-66" transform="translate(528.710938 -16.390625) scale(0.7)"/>
     <use xlink:href="#DejaVuSans-Oblique-61" transform="translate(553.354492 -16.390625) scale(0.7)"/>
     <use xlink:href="#DejaVuSans-Oblique-69" transform="translate(596.25 -16.390625) scale(0.7)"/>
     <use xlink:href="#DejaVuSans-Oblique-72" transform="translate(615.698242 -16.390625) scale(0.7)"/>
     <use xlink:href="#DejaVuSans-29" transform="translate(647.211914 0.015625)"/>
    </g>
   </g>
  </g>
  <g id="axes_1">
   <g id="Path3DCollection_1">
    <path d="M 285.312724 375.000814 
L 292.383792 367.929746 
M 285.312724 367.929746 
L 292.383792 375.000814 
" clip-path="url(#p5747b09674)" style="fill: #ff0000; fill-opacity: 0.7; stroke: #ff0000; stroke-opacity: 0.7; stroke-width: 1.5"/>
    <path d="M 278.248707 374.280838 
L 285.319775 367.209771 
M 278.248707 367.209771 
L 285.319775 374.280838 
" clip-path="url(#p5747b09674)" style="fill: #ff0000; fill-opacity: 0.7; stroke: #ff0000; stroke-opacity: 0.7; stroke-width: 1.5"/>
    <path d="M 279.231472 374.175155 
L 286.302539 367.104087 
M 279.231472 367.104087 
L 286.302539 374.175155 
" clip-path="url(#p5747b09674)" style="fill: #ff0000; fill-opacity: 0.7; stroke: #ff0000; stroke-opacity: 0.7; stroke-width: 1.5"/>
    <path d="M 276.881503 373.413351 
L 283.952571 366.342284 
M 276.881503 366.342284 
L 283.952571 373.413351 
" clip-path="url(#p5747b09674)" style="fill: #ff0000; fill-opacity: 0.7; stroke: #ff0000; stroke-opacity: 0.7; stroke-width: 1.5"/>
    <path d="M 276.607485 373.303166 
L 283.678552 366.232098 
M 276.607485 366.232098 
L 283.678552 373.303166 
" clip-path="url(#p5747b09674)" style="fill: #ff0000; fill-opacity: 0.7; stroke: #ff0000; stroke-opacity: 0.7; stroke-width: 1.5"/>
    <path d="M 276.572219 372.437945 
L 283.643287 365.366877 
M 276.572219 365.366877 
L 283.643287 372.437945 
" clip-path="url(#p5747b09674)" style="fill: #ff0000; fill-opacity: 0.7; stroke: #ff0000; stroke-opacity: 0.7; stroke-width: 1.5"/>
    <path d="M 275.474683 371.338836 
L 282.545751 364.267768 
M 275.474683 364.267768 
L 282.545751 371.338836 
" clip-path="url(#p5747b09674)" style="fill: #ff0000; fill-opacity: 0.7; stroke: #ff0000; stroke-opacity: 0.7; stroke-width: 1.5"/>
    <path d="M 290.080194 370.579433 
L 297.151262 363.508365 
M 290.080194 363.508365 
L 297.151262 370.579433 
" clip-path="url(#p5747b09674)" style="fill: #ff0000; fill-opacity: 0.7; stroke: #ff0000; stroke-opacity: 0.7; stroke-width: 1.5"/>
    <path d="M 277.264879 370.068125 
L 284.335947 362.997057 
M 277.264879 362.997057 
L 284.335947 370.068125 
" clip-path="url(#p5747b09674)" style="fill: #ff0000; fill-opacity: 0.7; stroke: #ff0000; stroke-opacity: 0.7; stroke-width: 1.5"/>
    <path d="M 286.931065 368.383126 
L 294.002133 361.312058 
M 286.931065 361.312058 
L 294.002133 368.383126 
" clip-path="url(#p5747b09674)" style="fill: #ff0000; fill-opacity: 0.7; stroke: #ff0000; stroke-opacity: 0.7; stroke-width: 1.5"/>
    <path d="M 289.824639 368.358237 
L 296.895707 361.287169 
M 289.824639 361.287169 
L 296.895707 368.358237 
" clip-path="url(#p5747b09674)" style="fill: #ff0000; fill-opacity: 0.7; stroke: #ff0000; stroke-opacity: 0.7; stroke-width: 1.5"/>
    <path d="M 277.172907 368.61925 
L 284.243975 361.548182 
M 277.172907 361.548182 
L 284.243975 368.61925 
" clip-path="url(#p5747b09674)" style="fill: #ff0000; fill-opacity: 0.7; stroke: #ff0000; stroke-opacity: 0.7; stroke-width: 1.5"/>
    <path d="M 276.103587 368.613308 
L 283.174655 361.54224 
M 276.103587 361.54224 
L 283.174655 368.613308 
" clip-path="url(#p5747b09674)" style="fill: #ff0000; fill-opacity: 0.7; stroke: #ff0000; stroke-opacity: 0.7; stroke-width: 1.5"/>
    <path d="M 276.164733 368.602426 
L 283.2358 361.531358 
M 276.164733 361.531358 
L 283.2358 368.602426 
" clip-path="url(#p5747b09674)" style="fill: #ff0000; fill-opacity: 0.7; stroke: #ff0000; stroke-opacity: 0.7; stroke-width: 1.5"/>
    <path d="M 278.794363 368.439421 
L 285.86543 361.368353 
M 278.794363 361.368353 
L 285.86543 368.439421 
" clip-path="url(#p5747b09674)" style="fill: #ff0000; fill-opacity: 0.7; stroke: #ff0000; stroke-opacity: 0.7; stroke-width: 1.5"/>
    <path d="M 284.232095 368.020466 
L 291.303162 360.949398 
M 284.232095 360.949398 
L 291.303162 368.020466 
" clip-path="url(#p5747b09674)" style="fill: #ff0000; fill-opacity: 0.7; stroke: #ff0000; stroke-opacity: 0.7; stroke-width: 1.5"/>
    <path d="M 277.805915 366.859016 
L 284.876982 359.787948 
M 277.805915 359.787948 
L 284.876982 366.859016 
" clip-path="url(#p5747b09674)" style="fill: #ff0000; fill-opacity: 0.7; stroke: #ff0000; stroke-opacity: 0.7; stroke-width: 1.5"/>
    <path d="M 276.231358 366.866323 
L 283.302425 359.795255 
M 276.231358 359.795255 
L 283.302425 366.866323 
" clip-path="url(#p5747b09674)" style="fill: #ff0000; fill-opacity: 0.7; stroke: #ff0000; stroke-opacity: 0.7; stroke-width: 1.5"/>
    <path d="M 276.320967 366.853159 
L 283.392035 359.782092 
M 276.320967 359.782092 
L 283.392035 366.853159 
" clip-path="url(#p5747b09674)" style="fill: #ff0000; fill-opacity: 0.7; stroke: #ff0000; stroke-opacity: 0.7; stroke-width: 1.5"/>
    <path d="M 280.337575 366.650295 
L 287.408643 359.579228 
M 280.337575 359.579228 
L 287.408643 366.650295 
" clip-path="url(#p5747b09674)" style="fill: #ff0000; fill-opacity: 0.7; stroke: #ff0000; stroke-opacity: 0.7; stroke-width: 1.5"/>
    <path d="M 277.360311 364.709693 
L 284.431379 357.638625 
M 277.360311 357.638625 
L 284.431379 364.709693 
" clip-path="url(#p5747b09674)" style="fill: #ff0000; fill-opacity: 0.7; stroke: #ff0000; stroke-opacity: 0.7; stroke-width: 1.5"/>
    <path d="M 275.489159 364.733601 
L 282.560227 357.662533 
M 275.489159 357.662533 
L 282.560227 364.733601 
" clip-path="url(#p5747b09674)" style="fill: #ff0000; fill-opacity: 0.7; stroke: #ff0000; stroke-opacity: 0.7; stroke-width: 1.5"/>
    <path d="M 275.486055 364.733612 
L 282.557123 357.662544 
M 275.486055 357.662544 
L 282.557123 364.733612 
" clip-path="url(#p5747b09674)" style="fill: #ff0000; fill-opacity: 0.7; stroke: #ff0000; stroke-opacity: 0.7; stroke-width: 1.5"/>
    <path d="M 277.14411 364.485357 
L 284.215178 357.414289 
M 277.14411 357.414289 
L 284.215178 364.485357 
" clip-path="url(#p5747b09674)" style="fill: #ff0000; fill-opacity: 0.7; stroke: #ff0000; stroke-opacity: 0.7; stroke-width: 1.5"/>
    <path d="M 277.827416 362.007776 
L 284.898484 354.936708 
M 277.827416 354.936708 
L 284.898484 362.007776 
" clip-path="url(#p5747b09674)" style="fill: #ff0000; fill-opacity: 0.7; stroke: #ff0000; stroke-opacity: 0.7; stroke-width: 1.5"/>
    <path d="M 276.520621 362.01404 
L 283.591689 354.942972 
M 276.520621 354.942972 
L 283.591689 362.01404 
" clip-path="url(#p5747b09674)" style="fill: #ff0000; fill-opacity: 0.7; stroke: #ff0000; stroke-opacity: 0.7; stroke-width: 1.5"/>
    <path d="M 275.399216 361.99782 
L 282.470284 354.926752 
M 275.399216 354.926752 
L 282.470284 361.99782 
" clip-path="url(#p5747b09674)" style="fill: #ff0000; fill-opacity: 0.7; stroke: #ff0000; stroke-opacity: 0.7; stroke-width: 1.5"/>
    <path d="M 278.921809 361.686687 
L 285.992877 354.615619 
M 278.921809 354.615619 
L 285.992877 361.686687 
" clip-path="url(#p5747b09674)" style="fill: #ff0000; fill-opacity: 0.7; stroke: #ff0000; stroke-opacity: 0.7; stroke-width: 1.5"/>
    <path d="M 278.967187 358.342728 
L 286.038255 351.271661 
M 278.967187 351.271661 
L 286.038255 358.342728 
" clip-path="url(#p5747b09674)" style="fill: #ff0000; fill-opacity: 0.7; stroke: #ff0000; stroke-opacity: 0.7; stroke-width: 1.5"/>
    <path d="M 277.454007 358.351032 
L 284.525074 351.279964 
M 277.454007 351.279964 
L 284.525074 358.351032 
" clip-path="url(#p5747b09674)" style="fill: #ff0000; fill-opacity: 0.7; stroke: #ff0000; stroke-opacity: 0.7; stroke-width: 1.5"/>
    <path d="M 274.379496 358.363387 
L 281.450563 351.292319 
M 274.379496 351.292319 
L 281.450563 358.363387 
" clip-path="url(#p5747b09674)" style="fill: #ff0000; fill-opacity: 0.7; stroke: #ff0000; stroke-opacity: 0.7; stroke-width: 1.5"/>
    <path d="M 273.869375 358.335876 
L 280.940442 351.264808 
M 273.869375 351.264808 
L 280.940442 358.335876 
" clip-path="url(#p5747b09674)" style="fill: #ff0000; fill-opacity: 0.7; stroke: #ff0000; stroke-opacity: 0.7; stroke-width: 1.5"/>
    <path d="M 277.389525 357.909156 
L 284.460592 350.838088 
M 277.389525 350.838088 
L 284.460592 357.909156 
" clip-path="url(#p5747b09674)" style="fill: #ff0000; fill-opacity: 0.7; stroke: #ff0000; stroke-opacity: 0.7; stroke-width: 1.5"/>
    <path d="M 298.538076 356.70874 
L 305.609144 349.637673 
M 298.538076 349.637673 
L 305.609144 356.70874 
" clip-path="url(#p5747b09674)" style="fill: #ff0000; fill-opacity: 0.7; stroke: #ff0000; stroke-opacity: 0.7; stroke-width: 1.5"/>
    <path d="M 298.483147 354.245898 
L 305.554214 347.17483 
M 298.483147 347.17483 
L 305.554214 354.245898 
" clip-path="url(#p5747b09674)" style="fill: #ff0000; fill-opacity: 0.7; stroke: #ff0000; stroke-opacity: 0.7; stroke-width: 1.5"/>
    <path d="M 276.41811 353.292136 
L 283.489178 346.221069 
M 276.41811 346.221069 
L 283.489178 353.292136 
" clip-path="url(#p5747b09674)" style="fill: #ff0000; fill-opacity: 0.7; stroke: #ff0000; stroke-opacity: 0.7; stroke-width: 1.5"/>
    <path d="M 276.411463 352.931866 
L 283.482531 345.860798 
M 276.411463 345.860798 
L 283.482531 352.931866 
" clip-path="url(#p5747b09674)" style="fill: #ff0000; fill-opacity: 0.7; stroke: #ff0000; stroke-opacity: 0.7; stroke-width: 1.5"/>
    <path d="M 275.972567 352.933735 
L 283.043635 345.862668 
M 275.972567 345.862668 
L 283.043635 352.933735 
" clip-path="url(#p5747b09674)" style="fill: #ff0000; fill-opacity: 0.7; stroke: #ff0000; stroke-opacity: 0.7; stroke-width: 1.5"/>
    <path d="M 274.518938 352.939046 
L 281.590006 345.867979 
M 274.518938 345.867979 
L 281.590006 352.939046 
" clip-path="url(#p5747b09674)" style="fill: #ff0000; fill-opacity: 0.7; stroke: #ff0000; stroke-opacity: 0.7; stroke-width: 1.5"/>
    <path d="M 275.398122 352.89022 
L 282.46919 345.819153 
M 275.398122 345.819153 
L 282.46919 352.89022 
" clip-path="url(#p5747b09674)" style="fill: #ff0000; fill-opacity: 0.7; stroke: #ff0000; stroke-opacity: 0.7; stroke-width: 1.5"/>
    <path d="M 270.856384 352.94599 
L 277.927452 345.874923 
M 270.856384 345.874923 
L 277.927452 352.94599 
" clip-path="url(#p5747b09674)" style="fill: #ff0000; fill-opacity: 0.7; stroke: #ff0000; stroke-opacity: 0.7; stroke-width: 1.5"/>
    <path d="M 291.702197 351.771266 
L 298.773265 344.700198 
M 291.702197 344.700198 
L 298.773265 351.771266 
" clip-path="url(#p5747b09674)" style="fill: #ff0000; fill-opacity: 0.7; stroke: #ff0000; stroke-opacity: 0.7; stroke-width: 1.5"/>
    <path d="M 275.539865 343.924978 
L 282.610933 336.85391 
M 275.539865 336.85391 
L 282.610933 343.924978 
" clip-path="url(#p5747b09674)" style="fill: #ff0000; fill-opacity: 0.7; stroke: #ff0000; stroke-opacity: 0.7; stroke-width: 1.5"/>
    <path d="M 279.205493 343.165106 
L 286.27656 336.094038 
M 279.205493 336.094038 
L 286.27656 343.165106 
" clip-path="url(#p5747b09674)" style="fill: #ff0000; fill-opacity: 0.7; stroke: #ff0000; stroke-opacity: 0.7; stroke-width: 1.5"/>
    <path d="M 277.584887 343.174413 
L 284.655954 336.103345 
M 277.584887 336.103345 
L 284.655954 343.174413 
" clip-path="url(#p5747b09674)" style="fill: #ff0000; fill-opacity: 0.7; stroke: #ff0000; stroke-opacity: 0.7; stroke-width: 1.5"/>
    <path d="M 276.167504 343.181238 
L 283.238572 336.11017 
M 276.167504 336.11017 
L 283.238572 343.181238 
" clip-path="url(#p5747b09674)" style="fill: #ff0000; fill-opacity: 0.7; stroke: #ff0000; stroke-opacity: 0.7; stroke-width: 1.5"/>
    <path d="M 274.009161 343.189171 
L 281.080229 336.118103 
M 274.009161 336.118103 
L 281.080229 343.189171 
" clip-path="url(#p5747b09674)" style="fill: #ff0000; fill-opacity: 0.7; stroke: #ff0000; stroke-opacity: 0.7; stroke-width: 1.5"/>
    <path d="M 275.591335 343.08823 
L 282.662403 336.017162 
M 275.591335 336.017162 
L 282.662403 343.08823 
" clip-path="url(#p5747b09674)" style="fill: #ff0000; fill-opacity: 0.7; stroke: #ff0000; stroke-opacity: 0.7; stroke-width: 1.5"/>
    <path d="M 303.877741 334.002451 
L 310.948809 326.931383 
M 303.877741 326.931383 
L 310.948809 334.002451 
" clip-path="url(#p5747b09674)" style="fill: #ff0000; fill-opacity: 0.7; stroke: #ff0000; stroke-opacity: 0.7; stroke-width: 1.5"/>
    <path d="M 277.017844 313.607309 
L 284.088912 306.536241 
M 277.017844 306.536241 
L 284.088912 313.607309 
" clip-path="url(#p5747b09674)" style="fill: #ff0000; fill-opacity: 0.7; stroke: #ff0000; stroke-opacity: 0.7; stroke-width: 1.5"/>
    <path d="M 277.893589 308.749798 
L 284.964657 301.67873 
M 277.893589 301.67873 
L 284.964657 308.749798 
" clip-path="url(#p5747b09674)" style="fill: #ff0000; fill-opacity: 0.7; stroke: #ff0000; stroke-opacity: 0.7; stroke-width: 1.5"/>
    <path d="M 359.004671 291.479224 
L 366.075739 284.408156 
M 359.004671 284.408156 
L 366.075739 291.479224 
" clip-path="url(#p5747b09674)" style="fill: #ff0000; fill-opacity: 0.7; stroke: #ff0000; stroke-opacity: 0.7; stroke-width: 1.5"/>
    <path d="M 286.521136 292.152817 
L 293.592204 285.081749 
M 286.521136 285.081749 
L 293.592204 292.152817 
" clip-path="url(#p5747b09674)" style="fill: #ff0000; fill-opacity: 0.7; stroke: #ff0000; stroke-opacity: 0.7; stroke-width: 1.5"/>
    <path d="M 278.166237 292.220877 
L 285.237304 285.149809 
M 278.166237 285.149809 
L 285.237304 292.220877 
" clip-path="url(#p5747b09674)" style="fill: #ff0000; fill-opacity: 0.7; stroke: #ff0000; stroke-opacity: 0.7; stroke-width: 1.5"/>
    <path d="M 277.114865 292.2269 
L 284.185933 285.155832 
M 277.114865 285.155832 
L 284.185933 292.2269 
" clip-path="url(#p5747b09674)" style="fill: #ff0000; fill-opacity: 0.7; stroke: #ff0000; stroke-opacity: 0.7; stroke-width: 1.5"/>
    <path d="M 276.635379 292.229446 
L 283.706447 285.158378 
M 276.635379 285.158378 
L 283.706447 292.229446 
" clip-path="url(#p5747b09674)" style="fill: #ff0000; fill-opacity: 0.7; stroke: #ff0000; stroke-opacity: 0.7; stroke-width: 1.5"/>
    <path d="M 275.392534 292.235425 
L 282.463602 285.164357 
M 275.392534 285.164357 
L 282.463602 292.235425 
" clip-path="url(#p5747b09674)" style="fill: #ff0000; fill-opacity: 0.7; stroke: #ff0000; stroke-opacity: 0.7; stroke-width: 1.5"/>
    <path d="M 274.361829 292.239701 
L 281.432897 285.168634 
M 274.361829 285.168634 
L 281.432897 292.239701 
" clip-path="url(#p5747b09674)" style="fill: #ff0000; fill-opacity: 0.7; stroke: #ff0000; stroke-opacity: 0.7; stroke-width: 1.5"/>
    <path d="M 273.732815 292.241995 
L 280.803883 285.170927 
M 273.732815 285.170927 
L 280.803883 292.241995 
" clip-path="url(#p5747b09674)" style="fill: #ff0000; fill-opacity: 0.7; stroke: #ff0000; stroke-opacity: 0.7; stroke-width: 1.5"/>
    <path d="M 285.195022 287.137678 
L 292.266089 280.06661 
M 285.195022 280.06661 
L 292.266089 287.137678 
" clip-path="url(#p5747b09674)" style="fill: #ff0000; fill-opacity: 0.7; stroke: #ff0000; stroke-opacity: 0.7; stroke-width: 1.5"/>
    <path d="M 375.79944 233.377261 
L 382.870508 226.306194 
M 375.79944 226.306194 
L 382.870508 233.377261 
" clip-path="url(#p5747b09674)" style="fill: #ff0000; fill-opacity: 0.7; stroke: #ff0000; stroke-opacity: 0.7; stroke-width: 1.5"/>
   </g>
   <g id="text_25">
    <!-- 3D Pareto Alignment Comparison -->
    <g transform="translate(342.905625 63.12) scale(0.12 -0.12)">
     <defs>
      <path id="DejaVuSans-50" d="M 1259 4147 
L 1259 2394 
L 2053 2394 
Q 2494 2394 2734 2622 
Q 2975 2850 2975 3272 
Q 2975 3691 2734 3919 
Q 2494 4147 2053 4147 
L 1259 4147 
z
M 628 4666 
L 2053 4666 
Q 2838 4666 3239 4311 
Q 3641 3956 3641 3272 
Q 3641 2581 3239 2228 
Q 2838 1875 2053 1875 
L 1259 1875 
L 1259 0 
L 628 0 
L 628 4666 
z
" transform="scale(0.015625)"/>
      <path id="DejaVuSans-6f" d="M 1959 3097 
Q 1497 3097 1228 2736 
Q 959 2375 959 1747 
Q 959 1119 1226 758 
Q 1494 397 1959 397 
Q 2419 397 2687 759 
Q 2956 1122 2956 1747 
Q 2956 2369 2687 2733 
Q 2419 3097 1959 3097 
z
M 1959 3584 
Q 2709 3584 3137 3096 
Q 3566 2609 3566 1747 
Q 3566 888 3137 398 
Q 2709 -91 1959 -91 
Q 1206 -91 779 398 
Q 353 888 353 1747 
Q 353 2609 779 3096 
Q 1206 3584 1959 3584 
z
" transform="scale(0.015625)"/>
      <path id="DejaVuSans-41" d="M 2188 4044 
L 1331 1722 
L 3047 1722 
L 2188 4044 
z
M 1831 4666 
L 2547 4666 
L 4325 0 
L 3669 0 
L 3244 1197 
L 1141 1197 
L 716 0 
L 50 0 
L 1831 4666 
z
" transform="scale(0.015625)"/>
      <path id="DejaVuSans-6c" d="M 603 4863 
L 1178 4863 
L 1178 0 
L 603 0 
L 603 4863 
z
" transform="scale(0.015625)"/>
      <path id="DejaVuSans-43" d="M 4122 4306 
L 4122 3641 
Q 3803 3938 3442 4084 
Q 3081 4231 2675 4231 
Q 1875 4231 1450 3742 
Q 1025 3253 1025 2328 
Q 1025 1406 1450 917 
Q 1875 428 2675 428 
Q 3081 428 3442 575 
Q 3803 722 4122 1019 
L 4122 359 
Q 3791 134 3420 21 
Q 3050 -91 2638 -91 
Q 1578 -91 968 557 
Q 359 1206 359 2328 
Q 359 3453 968 4101 
Q 1578 4750 2638 4750 
Q 3056 4750 3426 4639 
Q 3797 4528 4122 4306 
z
" transform="scale(0.015625)"/>
      <path id="DejaVuSans-70" d="M 1159 525 
L 1159 -1331 
L 581 -1331 
L 581 3500 
L 1159 3500 
L 1159 2969 
Q 1341 3281 1617 3432 
Q 1894 3584 2278 3584 
Q 2916 3584 3314 3078 
Q 3713 2572 3713 1747 
Q 3713 922 3314 415 
Q 2916 -91 2278 -91 
Q 1894 -91 1617 61 
Q 1341 213 1159 525 
z
M 3116 1747 
Q 3116 2381 2855 2742 
Q 2594 3103 2138 3103 
Q 1681 3103 1420 2742 
Q 1159 2381 1159 1747 
Q 1159 1113 1420 752 
Q 1681 391 2138 391 
Q 2594 391 2855 752 
Q 3116 1113 3116 1747 
z
" transform="scale(0.015625)"/>
     </defs>
     <use xlink:href="#DejaVuSans-33"/>
     <use xlink:href="#DejaVuSans-44" transform="translate(63.623047 0)"/>
     <use xlink:href="#DejaVuSans-20" transform="translate(140.625 0)"/>
     <use xlink:href="#DejaVuSans-50" transform="translate(172.412109 0)"/>
     <use xlink:href="#DejaVuSans-61" transform="translate(228.214844 0)"/>
     <use xlink:href="#DejaVuSans-72" transform="translate(289.494141 0)"/>
     <use xlink:href="#DejaVuSans-65" transform="translate(328.357422 0)"/>
     <use xlink:href="#DejaVuSans-74" transform="translate(389.880859 0)"/>
     <use xlink:href="#DejaVuSans-6f" transform="translate(429.089844 0)"/>
     <use xlink:href="#DejaVuSans-20" transform="translate(490.271484 0)"/>
     <use xlink:href="#DejaVuSans-41" transform="translate(522.058594 0)"/>
     <use xlink:href="#DejaVuSans-6c" transform="translate(590.466797 0)"/>
     <use xlink:href="#DejaVuSans-69" transform="translate(618.25 0)"/>
     <use xlink:href="#DejaVuSans-67" transform="translate(646.033203 0)"/>
     <use xlink:href="#DejaVuSans-6e" transform="translate(709.509766 0)"/>
     <use xlink:href="#DejaVuSans-6d" transform="translate(772.888672 0)"/>
     <use xlink:href="#DejaVuSans-65" transform="translate(870.300781 0)"/>
     <use xlink:href="#DejaVuSans-6e" transform="translate(931.824219 0)"/>
     <use xlink:href="#DejaVuSans-74" transform="translate(995.203125 0)"/>
     <use xlink:href="#DejaVuSans-20" transform="translate(1034.412109 0)"/>
     <use xlink:href="#DejaVuSans-43" transform="translate(1066.199219 0)"/>
     <use xlink:href="#DejaVuSans-6f" transform="translate(1136.023438 0)"/>
     <use xlink:href="#DejaVuSans-6d" transform="translate(1197.205078 0)"/>
     <use xlink:href="#DejaVuSans-70" transform="translate(1294.617188 0)"/>
     <use xlink:href="#DejaVuSans-61" transform="translate(1358.09375 0)"/>
     <use xlink:href="#DejaVuSans-72" transform="translate(1419.373047 0)"/>
     <use xlink:href="#DejaVuSans-69" transform="translate(1460.486328 0)"/>
     <use xlink:href="#DejaVuSans-73" transform="translate(1488.269531 0)"/>
     <use xlink:href="#DejaVuSans-6f" transform="translate(1540.369141 0)"/>
     <use xlink:href="#DejaVuSans-6e" transform="translate(1601.550781 0)"/>
    </g>
   </g>
   <g id="Path3DCollection_2">
    <defs>
     <path id="C0_0_88476eb727" d="M 0 3.535534 
C 0.937635 3.535534 1.836992 3.163008 2.5 2.5 
C 3.163008 1.836992 3.535534 0.937635 3.535534 -0 
C 3.535534 -0.937635 3.163008 -1.836992 2.5 -2.5 
C 1.836992 -3.163008 0.937635 -3.535534 0 -3.535534 
C -0.937635 -3.535534 -1.836992 -3.163008 -2.5 -2.5 
C -3.163008 -1.836992 -3.535534 -0.937635 -3.535534 0 
C -3.535534 0.937635 -3.163008 1.836992 -2.5 2.5 
C -1.836992 3.163008 -0.937635 3.535534 0 3.535534 
z
"/>
    </defs>
    <g clip-path="url(#p5747b09674)">
     <use xlink:href="#C0_0_88476eb727" x="279.787142" y="369.849713" style="fill: #0000ff; fill-opacity: 0.7; stroke: #0000ff; stroke-opacity: 0.7"/>
    </g>
    <g clip-path="url(#p5747b09674)">
     <use xlink:href="#C0_0_88476eb727" x="282.428679" y="368.856148" style="fill: #0000ff; fill-opacity: 0.7; stroke: #0000ff; stroke-opacity: 0.7"/>
    </g>
    <g clip-path="url(#p5747b09674)">
     <use xlink:href="#C0_0_88476eb727" x="282.331463" y="366.49736" style="fill: #0000ff; fill-opacity: 0.7; stroke: #0000ff; stroke-opacity: 0.7"/>
    </g>
    <g clip-path="url(#p5747b09674)">
     <use xlink:href="#C0_0_88476eb727" x="281.213845" y="365.02805" style="fill: #0000ff; fill-opacity: 0.7; stroke: #0000ff; stroke-opacity: 0.7"/>
    </g>
    <g clip-path="url(#p5747b09674)">
     <use xlink:href="#C0_0_88476eb727" x="295.867364" y="363.520173" style="fill: #0000ff; fill-opacity: 0.7; stroke: #0000ff; stroke-opacity: 0.7"/>
    </g>
    <g clip-path="url(#p5747b09674)">
     <use xlink:href="#C0_0_88476eb727" x="283.196057" y="363.261594" style="fill: #0000ff; fill-opacity: 0.7; stroke: #0000ff; stroke-opacity: 0.7"/>
    </g>
    <g clip-path="url(#p5747b09674)">
     <use xlink:href="#C0_0_88476eb727" x="282.014243" y="361.120425" style="fill: #0000ff; fill-opacity: 0.7; stroke: #0000ff; stroke-opacity: 0.7"/>
    </g>
    <g clip-path="url(#p5747b09674)">
     <use xlink:href="#C0_0_88476eb727" x="304.403963" y="359.605428" style="fill: #0000ff; fill-opacity: 0.7; stroke: #0000ff; stroke-opacity: 0.7"/>
    </g>
    <g clip-path="url(#p5747b09674)">
     <use xlink:href="#C0_0_88476eb727" x="306.587343" y="357.566358" style="fill: #0000ff; fill-opacity: 0.7; stroke: #0000ff; stroke-opacity: 0.7"/>
    </g>
    <g clip-path="url(#p5747b09674)">
     <use xlink:href="#C0_0_88476eb727" x="298.141842" y="357.718429" style="fill: #0000ff; fill-opacity: 0.7; stroke: #0000ff; stroke-opacity: 0.7"/>
    </g>
    <g clip-path="url(#p5747b09674)">
     <use xlink:href="#C0_0_88476eb727" x="279.616771" y="354.792825" style="fill: #0000ff; fill-opacity: 0.7; stroke: #0000ff; stroke-opacity: 0.7"/>
    </g>
    <g clip-path="url(#p5747b09674)">
     <use xlink:href="#C0_0_88476eb727" x="327.43627" y="353.713694" style="fill: #0000ff; fill-opacity: 0.7; stroke: #0000ff; stroke-opacity: 0.7"/>
    </g>
    <g clip-path="url(#p5747b09674)">
     <use xlink:href="#C0_0_88476eb727" x="311.377518" y="351.474445" style="fill: #0000ff; fill-opacity: 0.7; stroke: #0000ff; stroke-opacity: 0.7"/>
    </g>
    <g clip-path="url(#p5747b09674)">
     <use xlink:href="#C0_0_88476eb727" x="329.646116" y="349.887337" style="fill: #0000ff; fill-opacity: 0.7; stroke: #0000ff; stroke-opacity: 0.7"/>
    </g>
    <g clip-path="url(#p5747b09674)">
     <use xlink:href="#C0_0_88476eb727" x="281.557018" y="349.342618" style="fill: #0000ff; fill-opacity: 0.7; stroke: #0000ff; stroke-opacity: 0.7"/>
    </g>
    <g clip-path="url(#p5747b09674)">
     <use xlink:href="#C0_0_88476eb727" x="317.311831" y="349.109249" style="fill: #0000ff; fill-opacity: 0.7; stroke: #0000ff; stroke-opacity: 0.7"/>
    </g>
    <g clip-path="url(#p5747b09674)">
     <use xlink:href="#C0_0_88476eb727" x="325.741907" y="345.733442" style="fill: #0000ff; fill-opacity: 0.7; stroke: #0000ff; stroke-opacity: 0.7"/>
    </g>
    <g clip-path="url(#p5747b09674)">
     <use xlink:href="#C0_0_88476eb727" x="295.555001" y="346.003694" style="fill: #0000ff; fill-opacity: 0.7; stroke: #0000ff; stroke-opacity: 0.7"/>
    </g>
    <g clip-path="url(#p5747b09674)">
     <use xlink:href="#C0_0_88476eb727" x="299.64787" y="346.136088" style="fill: #0000ff; fill-opacity: 0.7; stroke: #0000ff; stroke-opacity: 0.7"/>
    </g>
    <g clip-path="url(#p5747b09674)">
     <use xlink:href="#C0_0_88476eb727" x="295.044607" y="344.038706" style="fill: #0000ff; fill-opacity: 0.7; stroke: #0000ff; stroke-opacity: 0.7"/>
    </g>
    <g clip-path="url(#p5747b09674)">
     <use xlink:href="#C0_0_88476eb727" x="348.1323" y="343.139105" style="fill: #0000ff; fill-opacity: 0.7; stroke: #0000ff; stroke-opacity: 0.7"/>
    </g>
    <g clip-path="url(#p5747b09674)">
     <use xlink:href="#C0_0_88476eb727" x="616.381533" y="343.248732" style="fill: #0000ff; fill-opacity: 0.7; stroke: #0000ff; stroke-opacity: 0.7"/>
    </g>
    <g clip-path="url(#p5747b09674)">
     <use xlink:href="#C0_0_88476eb727" x="297.878964" y="343.380302" style="fill: #0000ff; fill-opacity: 0.7; stroke: #0000ff; stroke-opacity: 0.7"/>
    </g>
    <g clip-path="url(#p5747b09674)">
     <use xlink:href="#C0_0_88476eb727" x="614.286267" y="343.87678" style="fill: #0000ff; fill-opacity: 0.7; stroke: #0000ff; stroke-opacity: 0.7"/>
    </g>
    <g clip-path="url(#p5747b09674)">
     <use xlink:href="#C0_0_88476eb727" x="306.440659" y="341.073412" style="fill: #0000ff; fill-opacity: 0.7; stroke: #0000ff; stroke-opacity: 0.7"/>
    </g>
    <g clip-path="url(#p5747b09674)">
     <use xlink:href="#C0_0_88476eb727" x="305.214651" y="339.329809" style="fill: #0000ff; fill-opacity: 0.7; stroke: #0000ff; stroke-opacity: 0.7"/>
    </g>
    <g clip-path="url(#p5747b09674)">
     <use xlink:href="#C0_0_88476eb727" x="287.658797" y="339.33842" style="fill: #0000ff; fill-opacity: 0.7; stroke: #0000ff; stroke-opacity: 0.7"/>
    </g>
    <g clip-path="url(#p5747b09674)">
     <use xlink:href="#C0_0_88476eb727" x="329.245232" y="334.430839" style="fill: #0000ff; fill-opacity: 0.7; stroke: #0000ff; stroke-opacity: 0.7"/>
    </g>
    <g clip-path="url(#p5747b09674)">
     <use xlink:href="#C0_0_88476eb727" x="623.656496" y="332.155446" style="fill: #0000ff; fill-opacity: 0.7; stroke: #0000ff; stroke-opacity: 0.7"/>
    </g>
    <g clip-path="url(#p5747b09674)">
     <use xlink:href="#C0_0_88476eb727" x="296.395704" y="329.397932" style="fill: #0000ff; fill-opacity: 0.7; stroke: #0000ff; stroke-opacity: 0.7"/>
    </g>
    <g clip-path="url(#p5747b09674)">
     <use xlink:href="#C0_0_88476eb727" x="315.619421" y="328.706133" style="fill: #0000ff; fill-opacity: 0.7; stroke: #0000ff; stroke-opacity: 0.7"/>
    </g>
    <g clip-path="url(#p5747b09674)">
     <use xlink:href="#C0_0_88476eb727" x="374.344783" y="326.655635" style="fill: #0000ff; fill-opacity: 0.7; stroke: #0000ff; stroke-opacity: 0.7"/>
    </g>
    <g clip-path="url(#p5747b09674)">
     <use xlink:href="#C0_0_88476eb727" x="604.442678" y="324.261852" style="fill: #0000ff; fill-opacity: 0.7; stroke: #0000ff; stroke-opacity: 0.7"/>
    </g>
    <g clip-path="url(#p5747b09674)">
     <use xlink:href="#C0_0_88476eb727" x="314.062043" y="320.906102" style="fill: #0000ff; fill-opacity: 0.7; stroke: #0000ff; stroke-opacity: 0.7"/>
    </g>
    <g clip-path="url(#p5747b09674)">
     <use xlink:href="#C0_0_88476eb727" x="365.817316" y="320.264943" style="fill: #0000ff; fill-opacity: 0.7; stroke: #0000ff; stroke-opacity: 0.7"/>
    </g>
    <g clip-path="url(#p5747b09674)">
     <use xlink:href="#C0_0_88476eb727" x="308.283726" y="319.633039" style="fill: #0000ff; fill-opacity: 0.7; stroke: #0000ff; stroke-opacity: 0.7"/>
    </g>
    <g clip-path="url(#p5747b09674)">
     <use xlink:href="#C0_0_88476eb727" x="319.703589" y="320.061525" style="fill: #0000ff; fill-opacity: 0.7; stroke: #0000ff; stroke-opacity: 0.7"/>
    </g>
    <g clip-path="url(#p5747b09674)">
     <use xlink:href="#C0_0_88476eb727" x="348.781269" y="316.261014" style="fill: #0000ff; fill-opacity: 0.7; stroke: #0000ff; stroke-opacity: 0.7"/>
    </g>
    <g clip-path="url(#p5747b09674)">
     <use xlink:href="#C0_0_88476eb727" x="322.508961" y="316.861829" style="fill: #0000ff; fill-opacity: 0.7; stroke: #0000ff; stroke-opacity: 0.7"/>
    </g>
    <g clip-path="url(#p5747b09674)">
     <use xlink:href="#C0_0_88476eb727" x="323.394115" y="315.632293" style="fill: #0000ff; fill-opacity: 0.7; stroke: #0000ff; stroke-opacity: 0.7"/>
    </g>
    <g clip-path="url(#p5747b09674)">
     <use xlink:href="#C0_0_88476eb727" x="368.283874" y="313.502185" style="fill: #0000ff; fill-opacity: 0.7; stroke: #0000ff; stroke-opacity: 0.7"/>
    </g>
    <g clip-path="url(#p5747b09674)">
     <use xlink:href="#C0_0_88476eb727" x="364.836665" y="306.664492" style="fill: #0000ff; fill-opacity: 0.7; stroke: #0000ff; stroke-opacity: 0.7"/>
    </g>
    <g clip-path="url(#p5747b09674)">
     <use xlink:href="#C0_0_88476eb727" x="300.695489" y="292.589114" style="fill: #0000ff; fill-opacity: 0.7; stroke: #0000ff; stroke-opacity: 0.7"/>
    </g>
    <g clip-path="url(#p5747b09674)">
     <use xlink:href="#C0_0_88476eb727" x="360.7018" y="291.38005" style="fill: #0000ff; fill-opacity: 0.7; stroke: #0000ff; stroke-opacity: 0.7"/>
    </g>
    <g clip-path="url(#p5747b09674)">
     <use xlink:href="#C0_0_88476eb727" x="280.638753" y="288.691429" style="fill: #0000ff; fill-opacity: 0.7; stroke: #0000ff; stroke-opacity: 0.7"/>
    </g>
    <g clip-path="url(#p5747b09674)">
     <use xlink:href="#C0_0_88476eb727" x="280.596459" y="288.691658" style="fill: #0000ff; fill-opacity: 0.7; stroke: #0000ff; stroke-opacity: 0.7"/>
    </g>
    <g clip-path="url(#p5747b09674)">
     <use xlink:href="#C0_0_88476eb727" x="312.539513" y="283.804746" style="fill: #0000ff; fill-opacity: 0.7; stroke: #0000ff; stroke-opacity: 0.7"/>
    </g>
    <g clip-path="url(#p5747b09674)">
     <use xlink:href="#C0_0_88476eb727" x="294.050031" y="283.517198" style="fill: #0000ff; fill-opacity: 0.7; stroke: #0000ff; stroke-opacity: 0.7"/>
    </g>
    <g clip-path="url(#p5747b09674)">
     <use xlink:href="#C0_0_88476eb727" x="305.07724" y="284.305067" style="fill: #0000ff; fill-opacity: 0.7; stroke: #0000ff; stroke-opacity: 0.7"/>
    </g>
    <g clip-path="url(#p5747b09674)">
     <use xlink:href="#C0_0_88476eb727" x="292.903019" y="280.790146" style="fill: #0000ff; fill-opacity: 0.7; stroke: #0000ff; stroke-opacity: 0.7"/>
    </g>
    <g clip-path="url(#p5747b09674)">
     <use xlink:href="#C0_0_88476eb727" x="292.05841" y="280.802011" style="fill: #0000ff; fill-opacity: 0.7; stroke: #0000ff; stroke-opacity: 0.7"/>
    </g>
    <g clip-path="url(#p5747b09674)">
     <use xlink:href="#C0_0_88476eb727" x="291.643933" y="278.646302" style="fill: #0000ff; fill-opacity: 0.7; stroke: #0000ff; stroke-opacity: 0.7"/>
    </g>
    <g clip-path="url(#p5747b09674)">
     <use xlink:href="#C0_0_88476eb727" x="305.618638" y="275.647002" style="fill: #0000ff; fill-opacity: 0.7; stroke: #0000ff; stroke-opacity: 0.7"/>
    </g>
    <g clip-path="url(#p5747b09674)">
     <use xlink:href="#C0_0_88476eb727" x="385.466748" y="275.687352" style="fill: #0000ff; fill-opacity: 0.7; stroke: #0000ff; stroke-opacity: 0.7"/>
    </g>
    <g clip-path="url(#p5747b09674)">
     <use xlink:href="#C0_0_88476eb727" x="312.295181" y="267.914783" style="fill: #0000ff; fill-opacity: 0.7; stroke: #0000ff; stroke-opacity: 0.7"/>
    </g>
    <g clip-path="url(#p5747b09674)">
     <use xlink:href="#C0_0_88476eb727" x="326.577887" y="265.486319" style="fill: #0000ff; fill-opacity: 0.7; stroke: #0000ff; stroke-opacity: 0.7"/>
    </g>
    <g clip-path="url(#p5747b09674)">
     <use xlink:href="#C0_0_88476eb727" x="310.800095" y="264.067931" style="fill: #0000ff; fill-opacity: 0.7; stroke: #0000ff; stroke-opacity: 0.7"/>
    </g>
    <g clip-path="url(#p5747b09674)">
     <use xlink:href="#C0_0_88476eb727" x="327.113524" y="256.074974" style="fill: #0000ff; fill-opacity: 0.7; stroke: #0000ff; stroke-opacity: 0.7"/>
    </g>
    <g clip-path="url(#p5747b09674)">
     <use xlink:href="#C0_0_88476eb727" x="596.461466" y="254.51132" style="fill: #0000ff; fill-opacity: 0.7; stroke: #0000ff; stroke-opacity: 0.7"/>
    </g>
    <g clip-path="url(#p5747b09674)">
     <use xlink:href="#C0_0_88476eb727" x="361.045162" y="246.096536" style="fill: #0000ff; fill-opacity: 0.7; stroke: #0000ff; stroke-opacity: 0.7"/>
    </g>
    <g clip-path="url(#p5747b09674)">
     <use xlink:href="#C0_0_88476eb727" x="435.018778" y="195.521516" style="fill: #0000ff; fill-opacity: 0.7; stroke: #0000ff; stroke-opacity: 0.7"/>
    </g>
   </g>
   <g id="legend_1">
    <g id="patch_6">
     <path d="M 566.925625 106.47625 
L 657.56 106.47625 
Q 659.56 106.47625 659.56 104.47625 
L 659.56 76.12 
Q 659.56 74.12 657.56 74.12 
L 566.925625 74.12 
Q 564.925625 74.12 564.925625 76.12 
L 564.925625 104.47625 
Q 564.925625 106.47625 566.925625 106.47625 
z
" style="fill: #ffffff; opacity: 0.8; stroke: #cccccc; stroke-linejoin: miter"/>
    </g>
    <g id="Path3DCollection_3">
     <defs>
      <path id="m9c103f7c6d" d="M -3.535534 3.535534 
L 3.535534 -3.535534 
M -3.535534 -3.535534 
L 3.535534 3.535534 
" style="stroke: #ff0000; stroke-opacity: 0.7; stroke-width: 1.5"/>
     </defs>
     <g>
      <use xlink:href="#m9c103f7c6d" x="578.925625" y="83.093438" style="fill: #ff0000; fill-opacity: 0.7; stroke: #ff0000; stroke-opacity: 0.7; stroke-width: 1.5"/>
     </g>
    </g>
    <g id="text_26">
     <!-- DQN -->
     <g transform="translate(596.925625 85.718438) scale(0.1 -0.1)">
      <defs>
       <path id="DejaVuSans-51" d="M 2522 4238 
Q 1834 4238 1429 3725 
Q 1025 3213 1025 2328 
Q 1025 1447 1429 934 
Q 1834 422 2522 422 
Q 3209 422 3611 934 
Q 4013 1447 4013 2328 
Q 4013 3213 3611 3725 
Q 3209 4238 2522 4238 
z
M 3406 84 
L 4238 -825 
L 3475 -825 
L 2784 -78 
Q 2681 -84 2626 -87 
Q 2572 -91 2522 -91 
Q 1538 -91 948 567 
Q 359 1225 359 2328 
Q 359 3434 948 4092 
Q 1538 4750 2522 4750 
Q 3503 4750 4090 4092 
Q 4678 3434 4678 2328 
Q 4678 1516 4351 937 
Q 4025 359 3406 84 
z
" transform="scale(0.015625)"/>
       <path id="DejaVuSans-4e" d="M 628 4666 
L 1478 4666 
L 3547 763 
L 3547 4666 
L 4159 4666 
L 4159 0 
L 3309 0 
L 1241 3903 
L 1241 0 
L 628 0 
L 628 4666 
z
" transform="scale(0.015625)"/>
      </defs>
      <use xlink:href="#DejaVuSans-44"/>
      <use xlink:href="#DejaVuSans-51" transform="translate(77.001953 0)"/>
      <use xlink:href="#DejaVuSans-4e" transform="translate(155.712891 0)"/>
     </g>
    </g>
    <g id="Path3DCollection_4">
     <defs>
      <path id="m9b19362215" d="M 0 3.535534 
C 0.937635 3.535534 1.836992 3.163008 2.5 2.5 
C 3.163008 1.836992 3.535534 0.937635 3.535534 0 
C 3.535534 -0.937635 3.163008 -1.836992 2.5 -2.5 
C 1.836992 -3.163008 0.937635 -3.535534 0 -3.535534 
C -0.937635 -3.535534 -1.836992 -3.163008 -2.5 -2.5 
C -3.163008 -1.836992 -3.535534 -0.937635 -3.535534 0 
C -3.535534 0.937635 -3.163008 1.836992 -2.5 2.5 
C -1.836992 3.163008 -0.937635 3.535534 0 3.535534 
z
" style="stroke: #0000ff; stroke-opacity: 0.7"/>
     </defs>
     <g>
      <use xlink:href="#m9b19362215" x="578.925625" y="97.771563" style="fill: #0000ff; fill-opacity: 0.7; stroke: #0000ff; stroke-opacity: 0.7"/>
     </g>
    </g>
    <g id="text_27">
     <!-- Pareto-DQN -->
     <g transform="translate(596.925625 100.396563) scale(0.1 -0.1)">
      <defs>
       <path id="DejaVuSans-2d" d="M 313 2009 
L 1997 2009 
L 1997 1497 
L 313 1497 
L 313 2009 
z
" transform="scale(0.015625)"/>
      </defs>
      <use xlink:href="#DejaVuSans-50"/>
      <use xlink:href="#DejaVuSans-61" transform="translate(55.802734 0)"/>
      <use xlink:href="#DejaVuSans-72" transform="translate(117.082031 0)"/>
      <use xlink:href="#DejaVuSans-65" transform="translate(155.945312 0)"/>
      <use xlink:href="#DejaVuSans-74" transform="translate(217.46875 0)"/>
      <use xlink:href="#DejaVuSans-6f" transform="translate(256.677734 0)"/>
      <use xlink:href="#DejaVuSans-2d" transform="translate(319.734375 0)"/>
      <use xlink:href="#DejaVuSans-44" transform="translate(355.818359 0)"/>
      <use xlink:href="#DejaVuSans-51" transform="translate(432.820312 0)"/>
      <use xlink:href="#DejaVuSans-4e" transform="translate(511.53125 0)"/>
     </g>
    </g>
   </g>
  </g>
 </g>
 <defs>
  <clipPath id="p5747b09674">
   <rect x="221.04" y="69.12" width="443.52" height="443.52"/>
  </clipPath>
 </defs>
</svg>
